<svg id="Group_3" data-name="Group 3" xmlns="http://www.w3.org/2000/svg" width="135" height="42" viewBox="0 0 135 42">
  <g id="Group_2" data-name="Group 2">
    <text id="HOL" transform="translate(1 32)" fill="#fff" font-size="27" font-family="Knewave-Regular, Knewave" letter-spacing="0.05em"><tspan x="0" y="0">HOL</tspan></text>
    <path id="Subtraction_2" data-name="Subtraction 2" d="M4.173,5.56A9.579,9.579,0,0,1,.432,5.121a.7.7,0,0,1-.4-.837C.237,3.5,1.594,2.447,3.57,1.53A15.417,15.417,0,0,1,9.6,0a14.839,14.839,0,0,1,5.9,1.509c1.912.9,3.226,1.95,3.43,2.734a.735.735,0,0,1-.438.878,9.546,9.546,0,0,1-3.775.427c-.671,0-1.42-.01-2.145-.02h-.011c-.892-.012-1.9-.026-2.964-.026-1.105,0-2.172.017-3.114.032H6.472C5.582,5.549,4.848,5.56,4.173,5.56Z" transform="translate(49.885 28.012)" fill="#fff"/>
    <text id="DAYZ" transform="translate(70 32)" fill="#fff" font-size="27" font-family="Knewave-Regular, Knewave" letter-spacing="0.05em"><tspan x="0" y="0">DAYZ</tspan></text>
    <path id="Path_5" data-name="Path 5" d="M490.683,213.58a59.386,59.386,0,0,1,1-10.777,79.8,79.8,0,0,1,3.3-11.365s6.586,2.227,7.4,1.025-4.141-5.833-4.141-5.833a7.681,7.681,0,0,1,3.04,0c1.827.323,2.6,1.042,2.6,0s-1.577-2.482-4.2-2.916a17.9,17.9,0,0,0-5.84.3s-6.9-2.369-7.845-1.546,3.257,3.282,3.257,3.282-8.834,3.755-8.228,5.006,10.655,0,10.655,0a65.886,65.886,0,0,0-4.651,10.962,69.214,69.214,0,0,0-2.343,11.857Z" transform="translate(-429.152 -180.105)" fill="#fff"/>
  </g>
</svg>
